/* XPM */
static char *_7519_d783952c9bf15d66e0df646ff1dfff2d38a3aaf55c354898180dbbde112d4141[] = {
/* columns rows colors chars-per-pixel */
"64 64 256 2 ",
"   c black",
".  c #1F170B",
"X  c #170F07",
"o  c #4B4B4B",
"O  c white",
"+  c #1B1B1B",
"@  c #131313",
"#  c #0B0B0B",
"$  c #070707",
"%  c #2F371F",
"&  c #232B0F",
"*  c #171F07",
"=  c #0F1700",
"-  c #4F3B2B",
";  c #473323",
":  c #3F2B1B",
">  c #FFB7B7",
",  c #F7ABAB",
"<  c #F3A3A3",
"1  c #EB9797",
"2  c #E78F8F",
"3  c #DF8787",
"4  c #DB7B7B",
"5  c #D37373",
"6  c #CB6B6B",
"7  c #C76363",
"8  c #BF5B5B",
"9  c #BB5757",
"0  c #B34F4F",
"q  c #AF4747",
"w  c #A73F3F",
"e  c #A33B3B",
"r  c #9B3333",
"t  c #972F2F",
"y  c #8F2B2B",
"u  c #8B2323",
"i  c #831F1F",
"p  c #7F1B1B",
"a  c #771717",
"s  c #731313",
"d  c #6B0F0F",
"f  c #670B0B",
"g  c #5F0707",
"h  c #5B0707",
"j  c #530707",
"k  c #4F0000",
"l  c #470000",
"z  c #430000",
"x  c #FFEBDF",
"c  c #FFE3D3",
"v  c #FFDBC7",
"b  c #FFD3BB",
"n  c #FFCFB3",
"m  c #FFC7A7",
"M  c #FFBF9B",
"N  c #FFBB93",
"B  c #FFB383",
"V  c #F7AB7B",
"C  c #EFA373",
"Z  c #E79B6B",
"A  c #DF9363",
"S  c #D78B5B",
"D  c #CF8353",
"F  c #CB7F4F",
"G  c #BF7B4B",
"H  c #B37347",
"J  c #AB6F43",
"K  c #A36B3F",
"L  c #9B633B",
"P  c #8F5F37",
"I  c #875733",
"U  c #7F532F",
"Y  c #774F2B",
"T  c #6B4727",
"R  c #5F4323",
"E  c #533F1F",
"W  c #4B371B",
"Q  c #3F2F17",
"!  c #332B13",
"~  c #2B230F",
"^  c #EFEFEF",
"/  c #E7E7E7",
"(  c #DFDFDF",
")  c gray86",
"_  c LightGray",
"`  c #CBCBCB",
"'  c gray78",
"]  c gray75",
"[  c #B7B7B7",
"{  c gray70",
"}  c gray67",
"|  c #A7A7A7",
" . c #9F9F9F",
".. c #979797",
"X. c #939393",
"o. c #8B8B8B",
"O. c #838383",
"+. c gray50",
"@. c #777777",
"#. c #6F6F6F",
"$. c gray42",
"%. c gray39",
"&. c #5B5B5B",
"*. c gray34",
"=. c gray31",
"-. c gray28",
";. c #434343",
":. c gray23",
">. c #373737",
",. c #2F2F2F",
"<. c #272727",
"1. c #232323",
"2. c #77FF6F",
"3. c #6FEF67",
"4. c #67DF5F",
"5. c #5FCF57",
"6. c #5BBF4F",
"7. c #53AF47",
"8. c #4B9F3F",
"9. c #439337",
"0. c #3F832F",
"q. c #37732B",
"w. c #2F6323",
"e. c #27531B",
"r. c #1F4317",
"t. c #17330F",
"y. c #13230B",
"u. c #0B1707",
"i. c #BFA78F",
"p. c #B79F87",
"a. c #AF977F",
"s. c #A78F77",
"d. c #9F876F",
"f. c #9B7F6B",
"g. c #937B63",
"h. c #8B735B",
"j. c #836B57",
"k. c #7B634F",
"l. c #775F4B",
"z. c #6F5743",
"x. c #67533F",
"c. c #5F4B37",
"v. c #574333",
"b. c #533F2F",
"n. c #9F8363",
"m. c #8F7753",
"M. c #836B4B",
"N. c #775F3F",
"B. c #675333",
"V. c #5B472B",
"C. c #4F3B23",
"Z. c #43331B",
"A. c #7B7F63",
"S. c #6F7357",
"D. c #676B4F",
"F. c #5B6347",
"G. c #53573B",
"H. c #474F33",
"J. c #3F472B",
"K. c #373F27",
"L. c #FFFF73",
"P. c #EBDB57",
"I. c #D7BB43",
"U. c #C39B2F",
"Y. c #AF7B1F",
"T. c #9B5B13",
"R. c #874307",
"E. c #732B00",
"W. c white",
"Q. c #FFDBDB",
"!. c #FFBBBB",
"~. c #FF9B9B",
"^. c #FF7B7B",
"/. c #FF5F5F",
"(. c #FF3F3F",
"). c #FF1F1F",
"_. c red",
"`. c #EF0000",
"'. c #E30000",
"]. c #D70000",
"[. c #CB0000",
"{. c #BF0000",
"}. c #B30000",
"|. c #A70000",
" X c #9B0000",
".X c #8B0000",
"XX c #7F0000",
"oX c #730000",
"OX c #670000",
"+X c #5B0000",
"@X c #4F0000",
"#X c #430000",
"$X c #E7E7FF",
"%X c #C7C7FF",
"&X c #ABABFF",
"*X c #8F8FFF",
"=X c #7373FF",
"-X c #5353FF",
";X c #3737FF",
":X c #1B1BFF",
">X c blue",
",X c #0000E3",
"<X c #0000CB",
"1X c #0000B3",
"2X c #00009B",
"3X c #000083",
"4X c #00006B",
"5X c #000053",
"6X c white",
"7X c #FFEBDB",
"8X c #FFD7BB",
"9X c #FFC79B",
"0X c #FFB37B",
"qX c #FFA35B",
"wX c #FF8F3B",
"eX c #FF7F1B",
"rX c #F37317",
"tX c #EB6F0F",
"yX c #DF670F",
"uX c #D75F0B",
"iX c #CB5707",
"pX c #C34F00",
"aX c #B74700",
"sX c #AF4300",
"dX c white",
"fX c #FFFFD7",
"gX c #FFFFB3",
"hX c #FFFF8F",
"jX c #FFFF6B",
"kX c #FFFF47",
"lX c #FFFF23",
"zX c yellow",
"xX c #A73F00",
"cX c #9F3700",
"vX c #932F00",
"bX c #872300",
"nX c #4F3B27",
"mX c #432F1B",
"MX c #372313",
"NX c #2F1B0B",
"BX c #000053",
"VX c #000047",
"CX c #00003B",
"ZX c #00002F",
"AX c #000023",
"SX c #000017",
"DX c #00000B",
"FX c cyan",
"GX c #FF9F43",
"HX c #FFE74B",
"JX c #FF7BFF",
"KX c magenta",
"LX c #CF00CF",
"PX c #9F009B",
"IX c #6F006B",
"UX c #A76B6B",
/* pixels */
">.5X4X4X4X4X4X4X4X4X4X4X4X4X4X4X4X4X4X4X4X5X>.>.5X4X4X4X4X4X4X4X4X4X4X4X4X4X4X4X4X4X4X4X4X4X4X4X4X4X4X5X>.>.5X4X4X4X4X4X4X4X5X>.",
"  5X5X5X5X5X5X5X5X5X5X5X5X5X5X5X5X5X5X5X5X5XZXZX4X4X4X4X4X4X4X4X4X4X4X4X4X4X4X4X4X4X4X4X4X4X4X4X4X4X4X4XZXZX4X4X4X4X4X4X4X4X4X  ",
"  5X5X5XVX5XCX5X5XCXCXCXCXCXCXCXCX5XCXCXCXZX    4X5X4X4XCX5X4XCXCXCXCXCX5X5XCXCXCX5X4X5XCXCX5X4X4X5XCXCX    4X4X5XCX5X4X4XCXCX  ",
"  5XVXCXVXCXCXCXCXCX5XCX5XCXCXCXCXCXCXCXCXCX    4X4X5XCXCXCXCXCXZXCXZXZXCX5X5XCXCXCXCXCXCXZXCXCXCXCXCXCX    4X4X5X5XCXCX5X5XZX  ",
"  5XVX5XVXVXVXCXCXCXCXCXCXCXCXCXZXZXCXZXZXCX                                                                4X5X4X4X4X4X5XCXCX  ",
"  5XVXVX5X5X5XVXCXCXVX5XVXCXCXCXZXZXCXZXZXZX    5X5X5X5X5X5X5X5X5X5X5X5X5X5X5X5X5X5X5X                      4X4X5X4X5XVXCXCXZX  ",
"  5XVXVX4X4X5X5X5XCX5X5X5XVXCXCXCXCXZXCXCXCX    5X4X4X4X4X5XCXCX4XCXCX4XCXCX4X4X4X5X5X    5X5X5X5XCXCXCX    4XVXVX5XVXVXVXCXCX  ",
"  5X5XCX5X4X4X5XVXCXVX5X5XVXCXCXZXZXCXZXZXCX    5X4X4X4X4X4X5X4X5XCXCXCX4X4X5X5X5XCX5X    5XVXVXCXCXCXCX    4XCXCX5XCXVXVXCXCX  ",
"  5XVXCXVX5X5XVXCXCXCXVXVXVXCXVXVXZXCXZXZXZX    5X4X4X4X4XCX4X5X5X4XCXCX5XCX5XCXCX5XCX    5XVXVXVXCXCXCX    4X4X5XCX5X5XCXCXZX  ",
"  5XVXCXCX5XVXCXCX5X5XCXZXCXCXVXVXVXCXZXZXZX    5X4X4X4XCXCXCX4X5X5X5X5XCXCXCXZXZXCXCX    5X5XVXVXCXZXZX    4XCXCXCX5X5XVXZXCX  ",
"  VXVXCX5XCXCXCXCX5X5XCXZXZXZXCXVXVXCXCXZX      5X4X4X4X4XCXCX4X4X4X5X5XCX5XCXCXZXZXZX    5X5XCXCX5XCXZX    4XCX4X5XZXVXZXZXCX  ",
"  VXCXCXCXCX5XCXCXCXZXCXCXZXZXCXCXZXCXZXCXZX    5X4X5X5X4X4X4X4X4X4X4X5XVXCXCX5XZXZXCX    5XVXVXCXCXZXZX    4X4XCXCXCXZXCXZXZX  ",
"  VXCXCXCXCXCXCXCXCXCXZXZXCXCXZXZXZXCXCXZXCX    5X4X5X5XCX4XCXCX5X4X4X5XVXCXCXCXZXZXCX    5XVXVXVXCXCXZX    4XCXCXCXCXCXZXZXZX  ",
"  CXCXCXCXZXZXCXZXZXCXCXZXZXZXZXZX  ZXZXZXZX    5X4X5X4XCXCXCXCXCXCXVXVXVXCXCXCXCXCXZX    5X5XVXVXCXCXZX    4XCXCXCXZXZXZXZXZX  ",
"  CXCXCXCXCXZXZXZXZXZXZXZXCXZXZXZXZXZXZX  ZX    5X4X4X5XCXCXCX5X5XCXCXCXCXCXVXVXCXZXZX    5XVXCX5XZXZXZX                        ",
"                                                5X4X5X5XCXCXCX5X5X5XCXCX4X4XVXVXVXZXSX    5X5X5XVX5XZXZX                        ",
"5X4X4X5X4X5X5X5X5X5X4X5X5X5X5X  4X4X4X5X5XCXCX  5X4XCX5XCXCX5X5X5X5XCXCX4X4X5XVXVXSXSX    VX5XVX5XVXCXZX    5X5X5X5X  4X4X4X4X4X",
"4X4X5XCX5X4X4X5XCX5X5XCX5XCXCX  4X4XCX4X4XCX4X  5X5X5X5X4X5XCX5X5X5XCXCXCX5X5XCXZXSXSX    VXVXCXCXCXCXZX    5X4XCXCX  4X4X5X4X4X",
"4X4XCXCXCX5X5XCXZXZXCXCXCXCXCX  4X4X4X4XVXCXCX  5X4XCX5X4X5XCXCXCXCXZXZXCXCXCXCXZXSXSX    VXCXZXZXZXCXZX    5X4X4XCX  4X5X4X4X4X",
"4X5XCX4X4XCXCXCXZXZXZXCXCXZXZX  4X4X4X4X5XCXCX  5X4X5X5X5XCX5XCXCXCXZXZXZXZXZXZXZXZXSX    CXCXZXCXZXZXZX    5XCXCXZX  4X4X4X4X4X",
"5XCXCX4X4X4XVXCXCXZXZXCXZXZXZX  4X4XVX5X5X5XCX  5X5X5XCXCXCXCXCXCXZXCXZXZXZXZXZXZXZXSX    CXCXZXZXZXZXZX    5XZXCXZX  4X4X4X4X4X",
"5X5XCXVX4X4XVXVXCXCXVXVXCXCXZX  4XVX4XVX5X5XCX                                                                        4X4X5X5XVX",
"4XCXCXCXVX5XVXVXVXVXVXVXCXZXSX  4XVXVXCXCXCXZX                                                    4X4X4X4X4X4X4X4X    4X5X5XVXCX",
"4X5XCXCXCXCXVXCXVXVXVXVXCXZXSX  4X4XCXCXCXZXCX    4X4X4X4X4X4X4X4X4X4X4X4X4X4X4X4X4X4X4X4XCX5X    4X3X4X3X5X5X5XVX    4X4X5XVXCX",
"4X4XCXCX4XCXCXCXVXVXVXCXZXZXSX  5X4XCXCXCXCXZX    4X4X4X5X4X4X4X4X4X5X4X5X4X4XCX5X4X4X4XCX5XZX    4X3X4X3X3X5XVXCX    4X4X4XVXCX",
"4X5XCXCXCX4X4XCXCXVXVXVXCXZXZX  5XCXCXCXCXZXCX    4X4X5X4X3X3X4X4X4X4X5X4X5X5X4X4X5X5X5X5XCXSX    4X3X3X3X3X5XVXCX    4X4X4X5X5X",
"5XCXCXCX5X4X4X5XCXVXVXVXCXZXZX  CXCXSXSXSXSXCX    4X4X5X4X3X3X3X4X4X4X4X4XCX5XCXCX5XCXCX5XZXSX    4X4X5X3X5XCX5XCX    4X4X4X5X5X",
"4XCX4XCXCX5X4X5XCXCXCXCXCXZXSX                    4X4X4X4X4X3X3X5X5X4XCX5X5XCXCXCXCX5XCXCXZXSX    4X3X5X5X5X5XVXCX    4X4X4X4X4X",
"5XCXCX5X5XCX5X5XZXZXSXCXZXZXSX                    4X4X4X4X4X4X5X5X5X4X5X5X5XCXCXCXCXCXZXZXZXCX    4X3X3X5X5XVXVXCX    4X5X5X4X4X",
"5XCXCX5X5X5XCXCXZXSXSXSXCXZXSX    4X4X4X4X5X5X    4X5X5X4X4XCXCX5X4X4XCX5X5XCXCXCXCXCXCXCXZXZX    4X3X3XVXCX5X5XZX    4X5X5X4X4X",
"5XCXCXCX5X5XCXCXZXSXSXSXZXSXSX    4X4XCX5XCXCX    4X4X4X4X4XCXCX5X5X5XCX5X5X5XCXCXCXZXCXCXZXSX    4X4X3XVXCXVX5XZX    4X4X5XVXVX",
"5XCXVXCXCXCXCXCXCXZXSXSXSXSXSX    4X5X5XCXCXCX    4X4X4X5X4X4X4XCX5XCXCXCX5X5XCXZXCXZXCXCXZXSX    4X4X5XVX4X5X5XCX    4X5XVXCXCX",
"5XVX5XCXCXVXVXCXZXCXZXZXSXSX      4X5XCXCXCXCX    4X4X5XCX5X4X4X5X5XCXCXCXCXCXCXCXZXCXCXZXZXSX    4X4X3XVX4X4XVXCX    4XVXCXCXCX",
"5X5XVXCXCXVXVXZXSXZXZXZXSX  SX    4X4X5X4XCXZX    4X5X5X4XCX5X5XCXCXCXZXCXCXZXZXCXCXCXZXCXZXSX    4X5X3X5XVXCXCXZX    4X4XVXCXCX",
"VXVXCXCXCXCXCXZXSXSXSXZXZXSX      4X4X4XCXCXCX    4XCX4XCX5X5XCXCXCXCXCXZXZXCXZXZXZXCXZXZXZXSX    4X3X5X5XVXZXCXCX    4X4X5XCXCX",
"VXVXCXVXVXCXCXZXSXSXSXZXZXSX      4X4X4X5XZXZX    4X5X4XCX5X5XCXCXCXZXZXZXZXZXZXZXZXZXCXZXZXSX    4X3X5XVXCXZXZXZX    4X5X5XVXCX",
"VXCXCXVXVXCXCXZXSXZXSXZXZXCXSX    4X5XVXZXCXCX    4X5XCX5X5XCXZXZXZXZXCXZXZXZXZXZXSXSXSXSXSXSX    4X3X5XCXCXZXZXZX    4X4X5X5XCX",
"CXCXCXCXCXZXZXSXZXSXSXZXSXSXSX    4XVXCX4XZXCX                                                    5X4X5XVXCXCXZXZX    4X4X4XVXCX",
"CXCXCXCXCXZXZXSXSXSXCXCXSXSXSX    4X4XVX4XCXZX                                                    5X4X4X5XVXZXCXCX    4X4XVXCXCX",
"CXCXCXCXCXCXZXZXSXSXCXSXSXCXCX    4X4XVXCXZXCX    5X5X5X5X5X5X5X5X5X5X5X5X5X5X5X5X5X5X5X5X5X5X    5X4X5X4X5XCXCXCX    4X4XCXCXCX",
"                                  4X4XVXCXZXZX    5X4X4X4X4X4X4X4X5X5X5X5X5X5X5XCXCXCX4XCX5XCX    5X3X5X5X4XCXZXZX              ",
"          SXSXCXCXCXCXCXCXCXCX    5X4XCXCXCXZX    4X4X3X3X4X5X5X4X4X4XVXVXVX5X5XVXVXVXCXCXCXCX    5X5X5X5XCXCXZXZX    CXCXCXCX  ",
"  CX5X4X4X4X4X4X4X4X4X4X4X4X4X    5X5XCXCXCXCX    4X4X3X3X3X4X4X4X4X4XVXVXCXCXVXVXVXVXCXCXCXCX    5X3X5XCXCXZXZXZX    CXVXVXCX  ",
"  5X4X4X4X4X4X4X5X4X4X5X5X5X4X    5X5XCXZXCXCX    4X4X4X4X4X4X4X4X4X4XVXCXCX4X4X4XVXVXCXCXCXCX    5X4XCXZXZXZXZXZX    CXVXVXCX  ",
"  5X4X4X4X5X4X4X4X4X4XCX5X4X4X    5XVXCXSXSXSX    4X4X4X4X4X4X4X4XCX5XVXVXCX4X4X4X4XCXCXCXCXCX    5X5XCXZXZXZXZXZX    CXCXCXZX  ",
"  4X4X4X4X4X4X4XVXVX5X4X4XCX4X                    5X4X4X4X4X4X5X5X4X5X5XVXVXCXCX4X4XZXCXCXZXCX    CXCXCXZXZXZXCXCX    CXCXCXZX  ",
"  4X5X4X5X4X4X4XVXCXCX4X5XCXCX                    5X5X4X4X5X5X4X5X4X5X5X5X5XZXCXCXCXCXCXZXCXZX                        CXCXZXCX  ",
"  4X4X4XVXVX4X4X5XCXCX5X4X4X5X    4X4X4X5X5XCX    5X5X4X4X5XVXVX4X5X5X5XCXCXCXZXCXCXZXZXZXZXCX                                  ",
"  4X4XVX5X4X4XVX5X4X4X4XCX5X5X    4XVX4XVXVXCX    5X4X4X4X4XVXCX4X4X4X5XVXCXZXCXZXZXCXZXZXZXCX    4X4X4X4X4X4X4X4X4X4X4X4X4X4X  ",
"  4X4X4X4X5XVX4XCX4XVXVX5XCX5X    4X5X4X4XCXCX    5X4X5X5X4X4X4X4X4X4X4X5XVXCXCXZXCXZXZXZXZXZX    4X4X5X5X4X4X4X4X5XCX4X5X5XCX  ",
"  4X5X4XVX5X5X4X4XVXCXCXVX5X5X    4X4XVX5XVXCX    5X4X5X5X5XCX5X4X4X4X4X5X5XVXZXZXZXZXZXSXCXZX    4X5X4X4X5X4X4X4XCX5X5X5XCXCX  ",
"  4X4XVXVX4X3X4X5XCX5XCXVX5X5X    4X4X5X5XVX5X    5X4X4X5X5X4XVXVX4X4X4X5X5XVXCXZXZXCXSX  SXSX    4X4X4X4X4X4X4X4XVXCX5XCXCXZX  ",
"  4X5X4X5X3X2X3XVXVX5XVXCXCXVX    4X4X5XCX5XCX    5X5X4XVXVXVXCXCXVX5X5X5XVXCXCXCXCXZXZXSX  SX    4XVX4XVXVX4X4X4X5X5XVXCXZXZX  ",
"  4X4X4X4X4X3X4X5XCXVX5XCXCXVX    4X5X4X4XCXCX    5X5X4X5XVXVXCXCXCXVXVXVXZXZXCXZXCXCXSXSXSX      4X4X4XCXCXVX5X5X5XVXVXCXZXZX  ",
"  4X5X4X4X4X4XVXCXCXCXCXVXCXZX    4X4X4XVXVXCX    5XCX4X4XVXVXCXCXCXCXCXCXCXZXZXCXZXZXSX  SX      4X4X5XVXCXCX5XVXCXCXCXZXZXZX  ",
"  5X4X4X4X5XVXCXCX5XVXCXCXCXZX    4X4X5XVXVXVX    5X4XCX5X4X5XCXCXCXCXCXCXZXZXCXZXCXZXSXSX        4X4XVX5XCXCX5XCXCXCXVXVXZXZX  ",
"  4X5X4X4XVXCX4XCX5X5XVXZXZXZX    4X5X4XCXVXVX    5X4X5X5X5XCXCX5X5XCXCXZXCXZXZXZXZXZXZXSXSX      4X4X4X4XCX4X4XVXCXCXVXVXVXZX  ",
"  4X5X4X5XVXCXCXCXVX5XVXZXZXZX    4X4X5XCXCXCX    5X5X5XCXCXCXCX5X5X5XCXCXCXCXZXZXZXSXSXSX  SX    4X4X4XCX5X4X4X4XVXZXCXVXVXCX  ",
"  4X5XVXVXVX5XCXCXCXVXVXCXZXZX    4X4X5XCXCXZX    5X4X5XCXCX4X5XCX5X5XZXZXCXCXCXZXZXSX  SXSX      4X4X5XCX5X5X4X4XVXZXZXZXCXCX  ",
"  4X5XVXVXCXCX5XCXCXCXZXCXZXZX    4X5XVXCXCXZX    5X4X4XCX4X4X5XZXCXCXCXZXZXCXCXZXZXZXSX  SXSX    4X4X5X4X5X5XVXVXVXCXZXZXZXZX  ",
"  5X5XVXCXZXCXZXCXZXCXCXZXZXZX    4X5XCXCXCXCX    5X5X4X4X5XCXCXZXCXZXCXZXZXZXZXSXSXSXZXSX  SX    4X4X4XVX5XCXCXCXCXCXZXCXZXZX  ",
"  5XVXVXCXZXZXZXZXCXZXZXZXZXZXZXZX5XVXCXCXZXCXZXZX5X5XCX5XCXZXCXZXZXZXZXCXZXCXSXSXSX  SXZXSXZXZXZX4X5X5XCXCX5XZXZXZXCXZXZXZXZX  ",
"  VXCXCXCXCXZXZXZXZXZXZXZXZXZX,.,.5XCXCXZXZXCX,.,.5XCXCXCXCXCXZXZXZXCXZXZXZXZXSXZX  SX  SXCXCX,.,.4X5X4X5XCXCXZXZXZXCXZXZXZXZX  ",
">.3X3X3X3X3X3X3X3X3X3X3X3X3X3X-.-.3X3X3X3X3X3X-.-.3X3X3X3X3X3X3X3X3X3X3X3X3X3X3X3X3X3X3X3X3X3X-.-.3X3X3X3X3X3X3X3X3X3X3X3X3X3X>."
};
